<svg width="50" height="50" viewBox="0 0 50 50" fill="none" xmlns="http://www.w3.org/2000/svg">
<mask id="mask0_88_310" style="mask-type:alpha" maskUnits="userSpaceOnUse" x="0" y="0" width="50" height="50">
<rect width="50" height="50" fill="#D9D9D9"/>
</mask>
<g mask="url(#mask0_88_310)">
<path d="M12.1873 35.625C13.9582 34.2708 15.9373 33.2031 18.1248 32.4219C20.3123 31.6406 22.604 31.25 24.9998 31.25C27.3957 31.25 29.6873 31.6406 31.8748 32.4219C34.0623 33.2031 36.0415 34.2708 37.8123 35.625C39.0276 34.2014 39.9738 32.5868 40.6509 30.7812C41.328 28.9757 41.6665 27.0486 41.6665 25C41.6665 20.3819 40.0432 16.4497 36.7967 13.2031C33.5502 9.9566 29.6179 8.33333 24.9998 8.33333C20.3818 8.33333 16.4495 9.9566 13.203 13.2031C9.95644 16.4497 8.33317 20.3819 8.33317 25C8.33317 27.0486 8.67171 28.9757 9.3488 30.7812C10.0259 32.5868 10.9721 34.2014 12.1873 35.625ZM24.9998 27.0833C22.9512 27.0833 21.2238 26.3802 19.8175 24.974C18.4113 23.5677 17.7082 21.8403 17.7082 19.7917C17.7082 17.7431 18.4113 16.0156 19.8175 14.6094C21.2238 13.2031 22.9512 12.5 24.9998 12.5C27.0485 12.5 28.7759 13.2031 30.1821 14.6094C31.5884 16.0156 32.2915 17.7431 32.2915 19.7917C32.2915 21.8403 31.5884 23.5677 30.1821 24.974C28.7759 26.3802 27.0485 27.0833 24.9998 27.0833ZM24.9998 45.8333C22.1179 45.8333 19.4096 45.2865 16.8748 44.1927C14.3401 43.099 12.1353 41.6146 10.2603 39.7396C8.38525 37.8646 6.90088 35.6597 5.80713 33.125C4.71338 30.5903 4.1665 27.8819 4.1665 25C4.1665 22.1181 4.71338 19.4097 5.80713 16.875C6.90088 14.3403 8.38525 12.1354 10.2603 10.2604C12.1353 8.38541 14.3401 6.90104 16.8748 5.80729C19.4096 4.71354 22.1179 4.16666 24.9998 4.16666C27.8818 4.16666 30.5901 4.71354 33.1248 5.80729C35.6596 6.90104 37.8644 8.38541 39.7394 10.2604C41.6144 12.1354 43.0988 14.3403 44.1925 16.875C45.2863 19.4097 45.8332 22.1181 45.8332 25C45.8332 27.8819 45.2863 30.5903 44.1925 33.125C43.0988 35.6597 41.6144 37.8646 39.7394 39.7396C37.8644 41.6146 35.6596 43.099 33.1248 44.1927C30.5901 45.2865 27.8818 45.8333 24.9998 45.8333ZM24.9998 41.6667C26.8401 41.6667 28.5762 41.3976 30.2082 40.8594C31.8401 40.3212 33.3332 39.5486 34.6873 38.5417C33.3332 37.5347 31.8401 36.7622 30.2082 36.224C28.5762 35.6858 26.8401 35.4167 24.9998 35.4167C23.1596 35.4167 21.4235 35.6858 19.7915 36.224C18.1596 36.7622 16.6665 37.5347 15.3123 38.5417C16.6665 39.5486 18.1596 40.3212 19.7915 40.8594C21.4235 41.3976 23.1596 41.6667 24.9998 41.6667ZM24.9998 22.9167C25.9026 22.9167 26.6491 22.6215 27.2394 22.0312C27.8297 21.441 28.1248 20.6944 28.1248 19.7917C28.1248 18.8889 27.8297 18.1424 27.2394 17.5521C26.6491 16.9618 25.9026 16.6667 24.9998 16.6667C24.0971 16.6667 23.3505 16.9618 22.7603 17.5521C22.17 18.1424 21.8748 18.8889 21.8748 19.7917C21.8748 20.6944 22.17 21.441 22.7603 22.0312C23.3505 22.6215 24.0971 22.9167 24.9998 22.9167Z" fill="#636364"/>
</g>
</svg>
